<mxfile host="app.diagrams.net" modified="2024-06-20T11:00:00.000Z" agent="5.0" etag="flame-mcp-fixed" version="24.5.4" type="device">
  <diagram name="Flame MCP Server Architecture" id="flame-mcp-architecture">
    <mxGraphModel dx="1422" dy="794" grid="1" gridSize="10" guides="1" tooltips="1" connect="1" arrows="1" fold="1" page="1" pageScale="1" pageWidth="1200" pageHeight="900" math="0" shadow="0">
      <root>
        <mxCell id="0" />
        <mxCell id="1" parent="0" />
        
        <!-- Title -->
        <mxCell id="title" value="Flame MCP Server Architecture" style="text;html=1;strokeColor=none;fillColor=none;align=center;verticalAlign=middle;whiteSpace=wrap;rounded=0;fontSize=24;fontStyle=1;fontColor=#1f497d;" vertex="1" parent="1">
          <mxGeometry x="415" y="20" width="370" height="40" as="geometry" />
        </mxCell>
        
        <!-- User -->
        <mxCell id="developer" value="Game Developer" style="shape=umlActor;verticalLabelPosition=bottom;verticalAlign=top;html=1;outlineConnect=0;fillColor=#fff2cc;strokeColor=#d6b656;fontSize=14;fontStyle=1;" vertex="1" parent="1">
          <mxGeometry x="100" y="100" width="40" height="80" as="geometry" />
        </mxCell>
        
        <!-- MCP Clients Layer -->
        <mxCell id="clients-layer" value="MCP Clients" style="rounded=1;whiteSpace=wrap;html=1;fillColor=#e1d5e7;strokeColor=#9673a6;fontSize=16;fontStyle=1;verticalAlign=top;" vertex="1" parent="1">
          <mxGeometry x="250" y="80" width="200" height="120" as="geometry" />
        </mxCell>
        
        <mxCell id="claude-desktop" value="Claude Desktop" style="rounded=1;whiteSpace=wrap;html=1;fillColor=#d5e8d4;strokeColor=#82b366;fontSize=12;" vertex="1" parent="1">
          <mxGeometry x="270" y="110" width="160" height="35" as="geometry" />
        </mxCell>
        
        <mxCell id="amazon-q" value="Amazon Q CLI" style="rounded=1;whiteSpace=wrap;html=1;fillColor=#d5e8d4;strokeColor=#82b366;fontSize=12;" vertex="1" parent="1">
          <mxGeometry x="270" y="155" width="160" height="35" as="geometry" />
        </mxCell>
        
        <!-- MCP Protocol -->
        <mxCell id="mcp-protocol" value="Model Context Protocol&#xa;(JSON-RPC over stdio)" style="rounded=1;whiteSpace=wrap;html=1;fillColor=#f8cecc;strokeColor=#b85450;fontSize=14;fontStyle=1;" vertex="1" parent="1">
          <mxGeometry x="520" y="120" width="180" height="60" as="geometry" />
        </mxCell>
        
        <!-- Flame MCP Server -->
        <mxCell id="flame-mcp-server" value="Flame MCP Server&#xa;(flame_mcp_live)" style="rounded=1;whiteSpace=wrap;html=1;fillColor=#dae8fc;strokeColor=#6c8ebf;fontSize=16;fontStyle=1;" vertex="1" parent="1">
          <mxGeometry x="780" y="120" width="180" height="60" as="geometry" />
        </mxCell>
        
        <!-- Tools Section -->
        <mxCell id="tools-section" value="Available Tools" style="rounded=1;whiteSpace=wrap;html=1;fillColor=#fff2cc;strokeColor=#d6b656;fontSize=14;fontStyle=1;verticalAlign=top;" vertex="1" parent="1">
          <mxGeometry x="780" y="220" width="180" height="100" as="geometry" />
        </mxCell>
        
        <mxCell id="search-tool" value="search_documentation" style="rounded=1;whiteSpace=wrap;html=1;fillColor=#e1d5e7;strokeColor=#9673a6;fontSize=11;" vertex="1" parent="1">
          <mxGeometry x="790" y="250" width="160" height="25" as="geometry" />
        </mxCell>
        
        <mxCell id="tutorial-tool" value="tutorial" style="rounded=1;whiteSpace=wrap;html=1;fillColor=#e1d5e7;strokeColor=#9673a6;fontSize=11;" vertex="1" parent="1">
          <mxGeometry x="790" y="285" width="160" height="25" as="geometry" />
        </mxCell>
        
        <!-- Documentation Manager -->
        <mxCell id="docs-manager" value="Documentation Manager&#xa;(FlameLiveDocs)" style="rounded=1;whiteSpace=wrap;html=1;fillColor=#f8cecc;strokeColor=#b85450;fontSize=14;fontStyle=1;" vertex="1" parent="1">
          <mxGeometry x="780" y="360" width="180" height="60" as="geometry" />
        </mxCell>
        
        <!-- Local Cache -->
        <mxCell id="local-cache" value="Local Documentation Cache&#xa;(flame_docs_cache/)" style="rounded=1;whiteSpace=wrap;html=1;fillColor=#d5e8d4;strokeColor=#82b366;fontSize=14;fontStyle=1;" vertex="1" parent="1">
          <mxGeometry x="780" y="460" width="180" height="60" as="geometry" />
        </mxCell>
        
        <!-- Cache Details -->
        <mxCell id="cache-details" value="• 146 Markdown files&#xa;• Space Shooter Tutorial&#xa;• Platformer Tutorial&#xa;• Klondike Tutorial&#xa;• Component docs&#xa;• API references" style="rounded=1;whiteSpace=wrap;html=1;fillColor=#f5f5f5;strokeColor=#666666;fontSize=10;align=left;verticalAlign=top;" vertex="1" parent="1">
          <mxGeometry x="1000" y="460" width="150" height="100" as="geometry" />
        </mxCell>
        
        <!-- Build & Sync Section -->
        <mxCell id="build-section" value="Build &amp; Sync Tools" style="rounded=1;whiteSpace=wrap;html=1;fillColor=#ffe6cc;strokeColor=#d79b00;fontSize=14;fontStyle=1;verticalAlign=top;" vertex="1" parent="1">
          <mxGeometry x="400" y="300" width="200" height="160" as="geometry" />
        </mxCell>
        
        <mxCell id="build-script" value="build_clean.sh" style="rounded=1;whiteSpace=wrap;html=1;fillColor=#ffe6cc;strokeColor=#d79b00;fontSize=12;" vertex="1" parent="1">
          <mxGeometry x="420" y="330" width="160" height="30" as="geometry" />
        </mxCell>
        
        <mxCell id="sync-script" value="flame_sync_standalone.dart" style="rounded=1;whiteSpace=wrap;html=1;fillColor=#e1d5e7;strokeColor=#9673a6;fontSize=12;" vertex="1" parent="1">
          <mxGeometry x="420" y="380" width="160" height="30" as="geometry" />
        </mxCell>
        
        <!-- GitHub API -->
        <mxCell id="github-api" value="GitHub API&#xa;(flame-engine/flame/doc)" style="rounded=1;whiteSpace=wrap;html=1;fillColor=#fff2cc;strokeColor=#d6b656;fontSize=14;fontStyle=1;" vertex="1" parent="1">
          <mxGeometry x="420" y="500" width="160" height="60" as="geometry" />
        </mxCell>
        
        <!-- Properly Connected Arrows -->
        
        <!-- User to Clients -->
        <mxCell id="user-to-clients" style="edgeStyle=orthogonalEdgeStyle;rounded=0;orthogonalLoop=1;jettySize=auto;html=1;strokeWidth=2;strokeColor=#82b366;endArrow=classic;endFill=1;" edge="1" parent="1" source="developer" target="clients-layer">
          <mxGeometry relative="1" as="geometry">
            <Array as="points">
              <mxPoint x="200" y="140" />
              <mxPoint x="200" y="140" />
            </Array>
          </mxGeometry>
        </mxCell>
        <mxCell id="user-label" value="Interacts with" style="edgeLabel;html=1;align=center;verticalAlign=middle;resizable=0;points=[];fontSize=10;fontStyle=2;" vertex="1" connectable="0" parent="user-to-clients">
          <mxGeometry x="-0.1" y="1" relative="1" as="geometry">
            <mxPoint x="5" y="-10" as="offset" />
          </mxGeometry>
        </mxCell>
        
        <!-- Clients to MCP Protocol -->
        <mxCell id="clients-to-mcp" style="edgeStyle=orthogonalEdgeStyle;rounded=0;orthogonalLoop=1;jettySize=auto;html=1;strokeWidth=3;strokeColor=#b85450;endArrow=classic;endFill=1;" edge="1" parent="1" source="clients-layer" target="mcp-protocol">
          <mxGeometry relative="1" as="geometry" />
        </mxCell>
        <mxCell id="mcp-label" value="JSON-RPC&#xa;Messages" style="edgeLabel;html=1;align=center;verticalAlign=middle;resizable=0;points=[];fontSize=10;fontStyle=2;" vertex="1" connectable="0" parent="clients-to-mcp">
          <mxGeometry x="-0.1" y="1" relative="1" as="geometry">
            <mxPoint y="-15" as="offset" />
          </mxGeometry>
        </mxCell>
        
        <!-- MCP Protocol to Server -->
        <mxCell id="mcp-to-server" style="edgeStyle=orthogonalEdgeStyle;rounded=0;orthogonalLoop=1;jettySize=auto;html=1;strokeWidth=3;strokeColor=#6c8ebf;endArrow=classic;endFill=1;" edge="1" parent="1" source="mcp-protocol" target="flame-mcp-server">
          <mxGeometry relative="1" as="geometry" />
        </mxCell>
        <mxCell id="server-label" value="Tool Calls" style="edgeLabel;html=1;align=center;verticalAlign=middle;resizable=0;points=[];fontSize=10;fontStyle=2;" vertex="1" connectable="0" parent="mcp-to-server">
          <mxGeometry x="-0.1" y="1" relative="1" as="geometry">
            <mxPoint y="-10" as="offset" />
          </mxGeometry>
        </mxCell>
        
        <!-- Server to Tools -->
        <mxCell id="server-to-tools" style="edgeStyle=orthogonalEdgeStyle;rounded=0;orthogonalLoop=1;jettySize=auto;html=1;strokeWidth=2;strokeColor=#d6b656;endArrow=classic;endFill=1;" edge="1" parent="1" source="flame-mcp-server" target="tools-section">
          <mxGeometry relative="1" as="geometry" />
        </mxCell>
        
        <!-- Server to Docs Manager -->
        <mxCell id="server-to-docs" style="edgeStyle=orthogonalEdgeStyle;rounded=0;orthogonalLoop=1;jettySize=auto;html=1;strokeWidth=2;strokeColor=#b85450;endArrow=classic;endFill=1;" edge="1" parent="1" source="flame-mcp-server" target="docs-manager">
          <mxGeometry relative="1" as="geometry">
            <Array as="points">
              <mxPoint x="870" y="200" />
              <mxPoint x="870" y="340" />
            </Array>
          </mxGeometry>
        </mxCell>
        <mxCell id="docs-label" value="Uses" style="edgeLabel;html=1;align=center;verticalAlign=middle;resizable=0;points=[];fontSize=10;fontStyle=2;" vertex="1" connectable="0" parent="server-to-docs">
          <mxGeometry x="-0.1" y="1" relative="1" as="geometry">
            <mxPoint x="15" y="0" as="offset" />
          </mxGeometry>
        </mxCell>
        
        <!-- Docs Manager to Cache -->
        <mxCell id="docs-to-cache" style="edgeStyle=orthogonalEdgeStyle;rounded=0;orthogonalLoop=1;jettySize=auto;html=1;strokeWidth=2;strokeColor=#82b366;endArrow=classic;endFill=1;" edge="1" parent="1" source="docs-manager" target="local-cache">
          <mxGeometry relative="1" as="geometry" />
        </mxCell>
        <mxCell id="cache-access-label" value="Read-Only&#xa;Access" style="edgeLabel;html=1;align=center;verticalAlign=middle;resizable=0;points=[];fontSize=10;fontStyle=2;" vertex="1" connectable="0" parent="docs-to-cache">
          <mxGeometry x="-0.1" y="1" relative="1" as="geometry">
            <mxPoint x="25" y="0" as="offset" />
          </mxGeometry>
        </mxCell>
        
        <!-- Cache to Details -->
        <mxCell id="cache-to-details" style="edgeStyle=orthogonalEdgeStyle;rounded=0;orthogonalLoop=1;jettySize=auto;html=1;strokeWidth=1;strokeColor=#666666;endArrow=classic;endFill=1;dashed=1;" edge="1" parent="1" source="local-cache" target="cache-details">
          <mxGeometry relative="1" as="geometry" />
        </mxCell>
        
        <!-- Build Script to Sync Script -->
        <mxCell id="build-to-sync" style="edgeStyle=orthogonalEdgeStyle;rounded=0;orthogonalLoop=1;jettySize=auto;html=1;strokeWidth=2;strokeColor=#d79b00;endArrow=classic;endFill=1;" edge="1" parent="1" source="build-script" target="sync-script">
          <mxGeometry relative="1" as="geometry" />
        </mxCell>
        <mxCell id="build-label" value="Executes" style="edgeLabel;html=1;align=center;verticalAlign=middle;resizable=0;points=[];fontSize=10;fontStyle=2;" vertex="1" connectable="0" parent="build-to-sync">
          <mxGeometry x="-0.1" y="1" relative="1" as="geometry">
            <mxPoint x="20" y="0" as="offset" />
          </mxGeometry>
        </mxCell>
        
        <!-- Sync Script to GitHub -->
        <mxCell id="sync-to-github" style="edgeStyle=orthogonalEdgeStyle;rounded=0;orthogonalLoop=1;jettySize=auto;html=1;strokeWidth=2;strokeColor=#d6b656;endArrow=classic;endFill=1;" edge="1" parent="1" source="sync-script" target="github-api">
          <mxGeometry relative="1" as="geometry">
            <Array as="points">
              <mxPoint x="500" y="430" />
              <mxPoint x="500" y="480" />
            </Array>
          </mxGeometry>
        </mxCell>
        <mxCell id="github-label" value="Downloads&#xa;Documentation" style="edgeLabel;html=1;align=center;verticalAlign=middle;resizable=0;points=[];fontSize=10;fontStyle=2;" vertex="1" connectable="0" parent="sync-to-github">
          <mxGeometry x="-0.1" y="1" relative="1" as="geometry">
            <mxPoint x="30" y="0" as="offset" />
          </mxGeometry>
        </mxCell>
        
        <!-- Sync Script to Cache -->
        <mxCell id="sync-to-cache" style="edgeStyle=orthogonalEdgeStyle;rounded=0;orthogonalLoop=1;jettySize=auto;html=1;strokeWidth=2;strokeColor=#9673a6;endArrow=classic;endFill=1;" edge="1" parent="1" source="sync-script" target="local-cache">
          <mxGeometry relative="1" as="geometry">
            <Array as="points">
              <mxPoint x="650" y="395" />
              <mxPoint x="650" y="490" />
            </Array>
          </mxGeometry>
        </mxCell>
        <mxCell id="populate-label" value="Populates" style="edgeLabel;html=1;align=center;verticalAlign=middle;resizable=0;points=[];fontSize=10;fontStyle=2;" vertex="1" connectable="0" parent="sync-to-cache">
          <mxGeometry x="-0.1" y="1" relative="1" as="geometry">
            <mxPoint x="10" y="-10" as="offset" />
          </mxGeometry>
        </mxCell>
        
        <!-- Process Flow Section -->
        <mxCell id="process-title" value="Process Flow" style="text;html=1;strokeColor=none;fillColor=none;align=center;verticalAlign=middle;whiteSpace=wrap;rounded=0;fontSize=18;fontStyle=1;fontColor=#1f497d;" vertex="1" parent="1">
          <mxGeometry x="100" y="600" width="120" height="30" as="geometry" />
        </mxCell>
        
        <mxCell id="step1" value="1. Build &amp; Setup&#xa;(build_clean.sh)" style="rounded=1;whiteSpace=wrap;html=1;fillColor=#ffe6cc;strokeColor=#d79b00;fontSize=11;fontStyle=1;" vertex="1" parent="1">
          <mxGeometry x="100" y="640" width="120" height="50" as="geometry" />
        </mxCell>
        
        <mxCell id="step2" value="2. Sync Documentation&#xa;(from GitHub)" style="rounded=1;whiteSpace=wrap;html=1;fillColor=#e1d5e7;strokeColor=#9673a6;fontSize=11;fontStyle=1;" vertex="1" parent="1">
          <mxGeometry x="250" y="640" width="120" height="50" as="geometry" />
        </mxCell>
        
        <mxCell id="step3" value="3. Start MCP Server&#xa;(flame_mcp_live)" style="rounded=1;whiteSpace=wrap;html=1;fillColor=#dae8fc;strokeColor=#6c8ebf;fontSize=11;fontStyle=1;" vertex="1" parent="1">
          <mxGeometry x="400" y="640" width="120" height="50" as="geometry" />
        </mxCell>
        
        <mxCell id="step4" value="4. AI Client Connects&#xa;(Claude/Amazon Q)" style="rounded=1;whiteSpace=wrap;html=1;fillColor=#d5e8d4;strokeColor=#82b366;fontSize=11;fontStyle=1;" vertex="1" parent="1">
          <mxGeometry x="550" y="640" width="120" height="50" as="geometry" />
        </mxCell>
        
        <mxCell id="step5" value="5. Search &amp; Tutorial&#xa;Tools Available" style="rounded=1;whiteSpace=wrap;html=1;fillColor=#fff2cc;strokeColor=#d6b656;fontSize=11;fontStyle=1;" vertex="1" parent="1">
          <mxGeometry x="700" y="640" width="120" height="50" as="geometry" />
        </mxCell>
        
        <!-- Process Flow Arrows -->
        <mxCell id="flow1" style="edgeStyle=orthogonalEdgeStyle;rounded=0;orthogonalLoop=1;jettySize=auto;html=1;strokeWidth=2;strokeColor=#333333;endArrow=classic;endFill=1;" edge="1" parent="1" source="step1" target="step2">
          <mxGeometry relative="1" as="geometry" />
        </mxCell>
        
        <mxCell id="flow2" style="edgeStyle=orthogonalEdgeStyle;rounded=0;orthogonalLoop=1;jettySize=auto;html=1;strokeWidth=2;strokeColor=#333333;endArrow=classic;endFill=1;" edge="1" parent="1" source="step2" target="step3">
          <mxGeometry relative="1" as="geometry" />
        </mxCell>
        
        <mxCell id="flow3" style="edgeStyle=orthogonalEdgeStyle;rounded=0;orthogonalLoop=1;jettySize=auto;html=1;strokeWidth=2;strokeColor=#333333;endArrow=classic;endFill=1;" edge="1" parent="1" source="step3" target="step4">
          <mxGeometry relative="1" as="geometry" />
        </mxCell>
        
        <mxCell id="flow4" style="edgeStyle=orthogonalEdgeStyle;rounded=0;orthogonalLoop=1;jettySize=auto;html=1;strokeWidth=2;strokeColor=#333333;endArrow=classic;endFill=1;" edge="1" parent="1" source="step4" target="step5">
          <mxGeometry relative="1" as="geometry" />
        </mxCell>
        
        <!-- Legend -->
        <mxCell id="legend-title" value="Legend" style="text;html=1;strokeColor=none;fillColor=none;align=center;verticalAlign=middle;whiteSpace=wrap;rounded=0;fontSize=14;fontStyle=1;fontColor=#1f497d;" vertex="1" parent="1">
          <mxGeometry x="100" y="720" width="60" height="20" as="geometry" />
        </mxCell>
        
        <mxCell id="legend-runtime" value="Runtime Components" style="rounded=1;whiteSpace=wrap;html=1;fillColor=#dae8fc;strokeColor=#6c8ebf;fontSize=10;" vertex="1" parent="1">
          <mxGeometry x="100" y="750" width="100" height="25" as="geometry" />
        </mxCell>
        
        <mxCell id="legend-build" value="Build Tools" style="rounded=1;whiteSpace=wrap;html=1;fillColor=#ffe6cc;strokeColor=#d79b00;fontSize=10;" vertex="1" parent="1">
          <mxGeometry x="220" y="750" width="100" height="25" as="geometry" />
        </mxCell>
        
        <mxCell id="legend-external" value="External Services" style="rounded=1;whiteSpace=wrap;html=1;fillColor=#fff2cc;strokeColor=#d6b656;fontSize=10;" vertex="1" parent="1">
          <mxGeometry x="340" y="750" width="100" height="25" as="geometry" />
        </mxCell>
        
        <mxCell id="legend-data" value="Data Storage" style="rounded=1;whiteSpace=wrap;html=1;fillColor=#d5e8d4;strokeColor=#82b366;fontSize=10;" vertex="1" parent="1">
          <mxGeometry x="460" y="750" width="100" height="25" as="geometry" />
        </mxCell>
        
      </root>
    </mxGraphModel>
  </diagram>
</mxfile>
